<?xml version="1.0" encoding="UTF-8" standalone="no"?>
<svg
   width="50mm"
   height="50mm"
   fill-rule="evenodd"
   clip-rule="evenodd"
   image-rendering="optimizeQuality"
   shape-rendering="geometricPrecision"
   text-rendering="geometricPrecision"
   viewBox="0 1.5 50 50"
   version="1.1"
   id="svg14"
   sodipodi:docname="B.svg"
   inkscape:version="1.4 (1:1.4+202410161351+e7c3feb100)"
   xmlns:inkscape="http://www.inkscape.org/namespaces/inkscape"
   xmlns:sodipodi="http://sodipodi.sourceforge.net/DTD/sodipodi-0.dtd"
   xmlns:xlink="http://www.w3.org/1999/xlink"
   xmlns="http://www.w3.org/2000/svg"
   xmlns:svg="http://www.w3.org/2000/svg">
  <sodipodi:namedview
     id="namedview14"
     pagecolor="#ffffff"
     bordercolor="#000000"
     borderopacity="0.25"
     inkscape:showpageshadow="2"
     inkscape:pageopacity="0.0"
     inkscape:pagecheckerboard="0"
     inkscape:deskcolor="#d1d1d1"
     inkscape:document-units="mm"
     inkscape:zoom="1.4142136"
     inkscape:cx="-295.21708"
     inkscape:cy="111.36932"
     inkscape:window-width="2506"
     inkscape:window-height="1370"
     inkscape:window-x="54"
     inkscape:window-y="33"
     inkscape:window-maximized="1"
     inkscape:current-layer="layer5" />
  <defs
     id="defs7">
    <linearGradient
       id="linearGradient5"
       inkscape:collect="always">
      <stop
         style="stop-color:#ece9df;stop-opacity:1;"
         offset="0"
         id="stop7" />
      <stop
         style="stop-color:#f4e0c8;stop-opacity:1;"
         offset="1"
         id="stop8" />
    </linearGradient>
    <inkscape:path-effect
       effect="mirror_symmetry"
       start_point="25,1.5"
       end_point="25,51.5"
       center_point="25,26.5"
       id="path-effect1"
       is_visible="true"
       lpeversion="1.2"
       lpesatellites=""
       mode="vertical"
       discard_orig_path="false"
       fuse_paths="true"
       oposite_fuse="false"
       split_items="false"
       split_open="false"
       link_styles="false" />
    <inkscape:path-effect
       effect="simplify"
       id="path-effect42"
       is_visible="true"
       lpeversion="1.3"
       threshold="5"
       steps="1"
       smooth_angles="77.518248"
       helper_size="10"
       simplify_individual_paths="false"
       simplify_just_coalesce="false" />
    <linearGradient
       id="linearGradient38"
       inkscape:collect="always">
      <stop
         style="stop-color:#ece9df;stop-opacity:1;"
         offset="0"
         id="stop38" />
      <stop
         style="stop-color:#f4e0c8;stop-opacity:1;"
         offset="1"
         id="stop39" />
    </linearGradient>
    <linearGradient
       id="linearGradient36"
       inkscape:collect="always">
      <stop
         style="stop-color:#ece9df;stop-opacity:1;"
         offset="0"
         id="stop36" />
      <stop
         style="stop-color:#f4e0c8;stop-opacity:1;"
         offset="1"
         id="stop37" />
    </linearGradient>
    <inkscape:path-effect
       effect="mirror_symmetry"
       start_point="25,1.5"
       end_point="25,51.5"
       center_point="25,26.5"
       id="path-effect30"
       is_visible="true"
       lpeversion="1.2"
       lpesatellites=""
       mode="vertical"
       discard_orig_path="false"
       fuse_paths="true"
       oposite_fuse="false"
       split_items="false"
       split_open="false"
       link_styles="false" />
    <inkscape:path-effect
       effect="mirror_symmetry"
       start_point="25,1.5"
       end_point="25,51.5"
       center_point="25,26.5"
       id="path-effect26"
       is_visible="true"
       lpeversion="1.2"
       lpesatellites=""
       mode="vertical"
       discard_orig_path="false"
       fuse_paths="true"
       oposite_fuse="false"
       split_items="false"
       split_open="false"
       link_styles="false" />
    <inkscape:path-effect
       effect="mirror_symmetry"
       start_point="25,1.5"
       end_point="25,51.5"
       center_point="25,26.5"
       id="path-effect25"
       is_visible="true"
       lpeversion="1.2"
       lpesatellites=""
       mode="vertical"
       discard_orig_path="false"
       fuse_paths="true"
       oposite_fuse="false"
       split_items="false"
       split_open="false"
       link_styles="false" />
    <inkscape:path-effect
       effect="mirror_symmetry"
       start_point="25,1.5"
       end_point="25,51.5"
       center_point="25,26.5"
       id="path-effect17"
       is_visible="true"
       lpeversion="1.2"
       lpesatellites=""
       mode="vertical"
       discard_orig_path="false"
       fuse_paths="true"
       oposite_fuse="false"
       split_items="false"
       split_open="false"
       link_styles="false" />
    <linearGradient
       id="a"
       x1="9.241"
       x2="40.761"
       y1="27.266"
       y2="27.266"
       gradientTransform="matrix(1.0155 0 0 1.0103 -.389 .482)"
       gradientUnits="userSpaceOnUse">
      <stop
         offset="0"
         stop-color="#ece9df"
         id="stop1" />
      <stop
         offset="1"
         stop-color="#f4e0c8"
         id="stop2" />
    </linearGradient>
    <linearGradient
       id="b"
       x1="9.005"
       x2="40.995"
       y1="26.762"
       y2="26.762"
       gradientTransform="translate(0,1.029)"
       gradientUnits="userSpaceOnUse">
      <stop
         offset="0"
         stop-color="#ece9df"
         id="stop3" />
      <stop
         offset="1"
         stop-color="#f4e0c8"
         id="stop4" />
    </linearGradient>
    <linearGradient
       id="e"
       x1="-36.133"
       x2="-9.938"
       y1="-313.97"
       y2="-313.97"
       gradientTransform="matrix(-1,0,0,1,1.964,333.28)"
       gradientUnits="userSpaceOnUse">
      <stop
         offset="0"
         style="stop-color:#000"
         id="stop5" />
      <stop
         offset="1"
         style="stop-color:#000;stop-opacity:0"
         id="stop6" />
    </linearGradient>
    <filter
       id="c"
       width="1.225"
       height="1.061"
       x="-.113"
       y="-.03"
       color-interpolation-filters="sRGB">
      <feGaussianBlur
         stdDeviation=".467"
         id="feGaussianBlur6" />
    </filter>
    <filter
       id="d"
       width="1.2230653"
       height="1.060718"
       x="-0.11153267"
       y="-0.030358997"
       color-interpolation-filters="sRGB">
      <feGaussianBlur
         stdDeviation=".463"
         id="feGaussianBlur7" />
    </filter>
    <inkscape:path-effect
       effect="mirror_symmetry"
       start_point="24.590467,21.167696"
       end_point="24.590467,22.642724"
       center_point="24.590467,21.90521"
       id="path-effect24"
       is_visible="true"
       lpeversion="1.2"
       lpesatellites=""
       mode="free"
       discard_orig_path="false"
       fuse_paths="false"
       oposite_fuse="false"
       split_items="false"
       split_open="false"
       link_styles="false" />
    <inkscape:path-effect
       effect="mirror_symmetry"
       start_point="24.601141,6.2457503"
       end_point="24.601141,44.321926"
       center_point="24.601141,25.283838"
       id="path-effect23"
       is_visible="true"
       lpeversion="1.2"
       lpesatellites=""
       mode="vertical"
       discard_orig_path="false"
       fuse_paths="true"
       oposite_fuse="false"
       split_items="false"
       split_open="false"
       link_styles="false" />
    <inkscape:path-effect
       effect="mirror_symmetry"
       start_point="24.208511,4.7040139"
       end_point="24.208511,44.882587"
       center_point="24.208511,24.7933"
       id="path-effect22"
       is_visible="true"
       lpeversion="1.2"
       lpesatellites=""
       mode="vertical"
       discard_orig_path="false"
       fuse_paths="false"
       oposite_fuse="false"
       split_items="false"
       split_open="false"
       link_styles="false" />
    <inkscape:path-effect
       effect="mirror_symmetry"
       start_point="24.88,11.271266"
       end_point="24.88,28.471162"
       center_point="24.88,19.871214"
       id="path-effect16"
       is_visible="true"
       lpeversion="1.2"
       lpesatellites=""
       mode="free"
       discard_orig_path="false"
       fuse_paths="true"
       oposite_fuse="false"
       split_items="false"
       split_open="false"
       link_styles="false" />
    <inkscape:path-effect
       effect="simplify"
       id="path-effect14"
       is_visible="true"
       lpeversion="1.3"
       threshold="5"
       steps="1"
       smooth_angles="64.109589"
       helper_size="10"
       simplify_individual_paths="false"
       simplify_just_coalesce="false" />
    <inkscape:path-effect
       effect="mirror_symmetry"
       start_point="24.98,24.778117"
       end_point="24.98,46.268963"
       center_point="24.98,35.52354"
       id="path-effect15"
       is_visible="true"
       lpeversion="1.2"
       lpesatellites=""
       mode="free"
       discard_orig_path="false"
       fuse_paths="true"
       oposite_fuse="false"
       split_items="false"
       split_open="false"
       link_styles="false" />
    <inkscape:path-effect
       effect="mirror_symmetry"
       start_point="24.590467,21.167696"
       end_point="24.590467,22.642724"
       center_point="24.590467,21.90521"
       id="path-effect24-6"
       is_visible="true"
       lpeversion="1.2"
       lpesatellites=""
       mode="free"
       discard_orig_path="false"
       fuse_paths="false"
       oposite_fuse="false"
       split_items="false"
       split_open="false"
       link_styles="false" />
    <inkscape:path-effect
       effect="mirror_symmetry"
       start_point="24.622906,0.811334"
       end_point="24.622906,38.887509"
       center_point="24.622906,19.849422"
       id="path-effect23-2"
       is_visible="true"
       lpeversion="1.2"
       lpesatellites=""
       mode="vertical"
       discard_orig_path="false"
       fuse_paths="true"
       oposite_fuse="false"
       split_items="false"
       split_open="false"
       link_styles="false" />
    <inkscape:path-effect
       effect="mirror_symmetry"
       start_point="23.958817,-0.98092787"
       end_point="23.958817,39.197645"
       center_point="23.958817,19.108359"
       id="path-effect22-9"
       is_visible="true"
       lpeversion="1.2"
       lpesatellites=""
       mode="vertical"
       discard_orig_path="false"
       fuse_paths="false"
       oposite_fuse="false"
       split_items="false"
       split_open="false"
       link_styles="false" />
    <inkscape:path-effect
       effect="mirror_symmetry"
       start_point="26.604874,1.9299256"
       end_point="26.604874,40.006101"
       center_point="26.604874,20.968013"
       id="path-effect23-0"
       is_visible="true"
       lpeversion="1.2"
       lpesatellites=""
       mode="vertical"
       discard_orig_path="false"
       fuse_paths="true"
       oposite_fuse="false"
       split_items="false"
       split_open="false"
       link_styles="false" />
    <inkscape:path-effect
       effect="mirror_symmetry"
       start_point="14.418063,61.377126"
       end_point="14.418063,6.9089919"
       center_point="14.418063,34.143059"
       id="path-effect17-3"
       is_visible="true"
       lpeversion="1.2"
       lpesatellites=""
       mode="vertical"
       discard_orig_path="false"
       fuse_paths="true"
       oposite_fuse="false"
       split_items="false"
       split_open="false"
       link_styles="false" />
    <inkscape:path-effect
       effect="mirror_symmetry"
       start_point="-2.426937,16.557336"
       end_point="-2.426937,66.557336"
       center_point="-2.426937,41.557336"
       id="path-effect17-0"
       is_visible="true"
       lpeversion="1.2"
       lpesatellites=""
       mode="vertical"
       discard_orig_path="false"
       fuse_paths="true"
       oposite_fuse="false"
       split_items="false"
       split_open="false"
       link_styles="false" />
    <inkscape:path-effect
       effect="mirror_symmetry"
       start_point="-2.426937,16.557336"
       end_point="-2.426937,66.557336"
       center_point="-2.426937,41.557336"
       id="path-effect25-6"
       is_visible="true"
       lpeversion="1.2"
       lpesatellites=""
       mode="vertical"
       discard_orig_path="false"
       fuse_paths="false"
       oposite_fuse="false"
       split_items="false"
       split_open="false"
       link_styles="false" />
    <inkscape:path-effect
       effect="mirror_symmetry"
       start_point="25.355403,54.217365"
       end_point="25.355403,4.217365"
       center_point="25.355403,29.217365"
       id="path-effect25-1"
       is_visible="true"
       lpeversion="1.2"
       lpesatellites=""
       mode="vertical"
       discard_orig_path="false"
       fuse_paths="false"
       oposite_fuse="false"
       split_items="false"
       split_open="false"
       link_styles="false" />
    <linearGradient
       inkscape:collect="always"
       xlink:href="#linearGradient36"
       id="linearGradient37"
       x1="8.9929809"
       y1="43.832896"
       x2="41.007019"
       y2="43.832896"
       gradientUnits="userSpaceOnUse" />
    <linearGradient
       inkscape:collect="always"
       xlink:href="#linearGradient38"
       id="linearGradient39"
       x1="12.205118"
       y1="39.259625"
       x2="37.794882"
       y2="39.259625"
       gradientUnits="userSpaceOnUse" />
    <inkscape:path-effect
       effect="mirror_symmetry"
       start_point="36.29055,-1.2427664"
       end_point="36.29055,48.757234"
       center_point="36.29055,23.757234"
       id="path-effect26-3"
       is_visible="true"
       lpeversion="1.2"
       lpesatellites=""
       mode="vertical"
       discard_orig_path="false"
       fuse_paths="true"
       oposite_fuse="false"
       split_items="false"
       split_open="false"
       link_styles="false" />
    <linearGradient
       inkscape:collect="always"
       xlink:href="#linearGradient5"
       id="linearGradient8"
       x1="14.394374"
       y1="23.487726"
       x2="35.605626"
       y2="23.487726"
       gradientUnits="userSpaceOnUse"
       gradientTransform="translate(0,0.05070263)" />
    <filter
       inkscape:collect="always"
       style="color-interpolation-filters:sRGB"
       id="filter8"
       x="-0.20350685"
       y="-0.12097268"
       width="1.4070137"
       height="1.2419454">
      <feGaussianBlur
         inkscape:collect="always"
         stdDeviation="0.3814037"
         id="feGaussianBlur8" />
    </filter>
    <filter
       inkscape:collect="always"
       style="color-interpolation-filters:sRGB"
       id="filter9"
       x="-0.10173947"
       y="-0.11508154"
       width="1.2034789"
       height="1.2301631">
      <feGaussianBlur
         inkscape:collect="always"
         stdDeviation="0.2433441"
         id="feGaussianBlur9" />
    </filter>
    <filter
       inkscape:collect="always"
       style="color-interpolation-filters:sRGB"
       id="filter10"
       x="-0.09400731"
       y="-0.12688669"
       width="1.1880146"
       height="1.2537734">
      <feGaussianBlur
         inkscape:collect="always"
         stdDeviation="0.19618921"
         id="feGaussianBlur10" />
    </filter>
    <filter
       inkscape:collect="always"
       style="color-interpolation-filters:sRGB"
       id="filter8-9"
       x="-0.18600944"
       y="-0.043023923"
       width="1.3720189"
       height="1.0860478">
      <feGaussianBlur
         inkscape:collect="always"
         stdDeviation="0.3814037"
         id="feGaussianBlur8-3" />
    </filter>
  </defs>
  <g
     inkscape:groupmode="layer"
     id="layer5"
     inkscape:label="Layer 3"
     style="display:inline">
    <path
       style="display:inline;opacity:1;fill:url(#linearGradient37);stroke:#000000;stroke-width:1;stroke-dasharray:none;stroke-opacity:1"
       d="M 25,46.268963 H 9.5030514 V 45.95292 c 0,0 -0.087184,-1.525719 0.2506538,-2.255885 0.3378378,-0.730165 0.5013078,-1.013513 1.3731468,-1.678291 0.87184,-0.664777 1.896252,-0.621187 1.896252,-0.621187 H 25 36.976896 c 0,0 1.024412,-0.04359 1.896252,0.621187 0.871839,0.664778 1.035309,0.948126 1.373147,1.678291 0.337838,0.730166 0.250654,2.255885 0.250654,2.255885 v 0.316043 z"
       id="path16"
       inkscape:path-effect="#path-effect17"
       inkscape:original-d="M 25.162773,46.268963 H 9.5030514 V 45.95292 c 0,0 -0.087184,-1.525719 0.2506538,-2.255885 0.3378378,-0.730165 0.5013078,-1.013513 1.3731468,-1.678291 0.87184,-0.664777 1.896252,-0.621187 1.896252,-0.621187 h 12.13406"
       sodipodi:nodetypes="cccsscc" />
    <path
       style="display:inline;opacity:1;fill:url(#linearGradient39);stroke:#000000;stroke-width:1;stroke-dasharray:none;stroke-opacity:1"
       d="m 25,37.848285 h -8.48689 c 0,0 -3.520593,1.215524 -3.619949,2.287827 -0.09936,1.072303 0.854425,1.188733 0.854425,1.188733 H 25 36.252414 c 0,0 0.953785,-0.11643 0.854425,-1.188733 -0.09936,-1.072303 -3.619949,-2.287827 -3.619949,-2.287827 z"
       id="path25"
       inkscape:path-effect="#path-effect25"
       inkscape:original-d="M 27.098572,37.848285 H 16.51311 c 0,0 -3.520593,1.215524 -3.619949,2.287827 -0.09936,1.072303 0.854425,1.188733 0.854425,1.188733 H 25.76286"
       sodipodi:nodetypes="cczcc" />
    <path
       style="display:inline;opacity:0.801;fill:#ffffff;fill-opacity:1;stroke:none;stroke-width:1;stroke-dasharray:none;stroke-opacity:1"
       d="m 15.227578,41.910505 c -0.937538,0.03203 -1.878638,0.0099 -2.813844,0.07804 -0.822526,0.202694 -1.524025,0.778969 -1.970305,1.488169 -0.327167,0.557094 -0.437304,1.218046 -0.410157,1.856358 -0.0078,0.129475 -0.093907,0.441746 0.127171,0.407342 1.694037,0 3.388075,0 5.082112,0 -1.225261,-0.228612 -2.450523,-0.457225 -3.675784,-0.685837 -0.01644,-0.561498 0.276958,-1.074675 0.589441,-1.51944 0.242809,-0.284496 0.562264,-0.486073 0.859298,-0.707608"
       id="path42" />
    <path
       style="opacity:1;fill:url(#linearGradient8);stroke:#000000;stroke-width:1;stroke-linecap:square"
       d="m 18.352223,37.405105 c -2.176963,-3.297096 -3.508912,-8.211501 -3.456295,-11.131387 0.05262,-2.919886 1.261082,-6.477658 2.676893,-8.589969 1.415811,-2.112312 2.751356,-3.350295 3.620221,-4.058924 0.868865,-0.708629 2.08538,-1.628796 2.08538,-1.628796 0,0 -1.795626,-1.524049 -0.910371,-2.4493145 C 23.007565,8.878294 24.142453,8.7784058 25,8.7774178 c 0.857547,9.88e-4 1.992435,0.1008762 2.631949,0.7692967 0.885255,0.9252655 -0.910371,2.4493145 -0.910371,2.4493145 0,0 1.643543,1.20679 2.35432,1.821731 0.695524,0.601745 1.263485,1.208416 1.263485,1.208416 l -5.478433,5.009727 1.372897,1.561807 c 0,0 4.718263,-4.277333 5.493166,-4.930252 0.366887,0.494716 1.477049,1.996812 2.225081,3.930383 0.748032,1.93357 1.125666,4.215934 1.151976,5.675877 0.05262,2.919886 -1.279332,7.834291 -3.456295,11.131387"
       id="path1"
       sodipodi:nodetypes="czzzczcscsccccssc" />
    <path
       style="display:inline;opacity:1;fill:#000000;fill-opacity:1;stroke:none;stroke-width:0.977;stroke-linejoin:miter;stroke-dasharray:none;stroke-opacity:1"
       id="path22-1"
       transform="matrix(1.2444444,0,0,1.2444444,-4.8154161,2.7207102)"
       d="m 21.728907,17.259245 c 0,0.410977 -0.333163,0.744141 -0.744141,0.744141 -0.410978,0 -0.744141,-0.333164 -0.744141,-0.744141 0,-0.410978 0.333163,-0.744141 0.744141,-0.744141 0.410978,0 0.744141,0.333163 0.744141,0.744141 z m 4.459821,0 c 0,0.410977 0.333163,0.744141 0.744141,0.744141 0.410977,0 0.74414,-0.333164 0.74414,-0.744141 0,-0.410978 -0.333163,-0.744141 -0.74414,-0.744141 -0.410978,0 -0.744141,0.333163 -0.744141,0.744141 z"
       sodipodi:type="arc"
       sodipodi:ry="0.74414062"
       sodipodi:rx="0.74414062"
       sodipodi:cy="17.259245"
       sodipodi:cx="20.984766"
       inkscape:path-effect="#path-effect22-9" />
    <path
       style="display:inline;opacity:1;fill:#000000;fill-opacity:1;stroke:none;stroke-width:0.977;stroke-linejoin:miter;stroke-dasharray:none;stroke-opacity:1"
       d="m 24.589713,20.26888 c 0,0 -0.892969,-0.04961 -0.926041,0.214974 -0.03307,0.264583 0.198437,0.595312 0.429948,0.810286 0.23151,0.214974 0.479557,0.198438 0.479557,0.198438 l 0.04973,0.01421 0.04973,-0.01421 c 0,0 0.248047,0.01654 0.479557,-0.198438 0.231511,-0.214974 0.463018,-0.545703 0.429948,-0.810286 -0.03307,-0.264584 -0.926041,-0.214974 -0.926041,-0.214974"
       id="path23-2"
       sodipodi:nodetypes="csscc"
       transform="matrix(1.3019196,0,0,1.3131571,-7.0570434,0.434591)"
       inkscape:original-d="m 24.589713,20.26888 c 0,0 -0.892969,-0.04961 -0.926041,0.214974 -0.03307,0.264583 0.198437,0.595312 0.429948,0.810286 0.23151,0.214974 0.479557,0.198438 0.479557,0.198438 l 0.115755,0.03307"
       inkscape:path-effect="#path-effect23-2" />
    <path
       style="display:inline;opacity:1;fill:none;fill-opacity:1;stroke:#000000;stroke-width:0.75;stroke-linejoin:miter;stroke-dasharray:none;stroke-opacity:1"
       d="m 24.590467,21.167696 v 1.356393 l -1.046931,0.761753 m 1.046931,-2.118146 v 1.356393 l 1.046931,0.761753"
       id="path24-7"
       sodipodi:nodetypes="ccc"
       transform="translate(0.37425096,6.9690077)"
       inkscape:original-d="m 24.590467,21.167696 v 1.356393 l -1.046931,0.761753"
       inkscape:path-effect="#path-effect24-6" />
    <path
       style="display:inline;opacity:0.8;fill:#ffffff;fill-opacity:1;fill-rule:evenodd;stroke:none;stroke-width:1;stroke-linecap:round"
       d="m 24.888933,9.2819206 c -0.525926,0.1002626 -1.038318,0.5329685 -1.446488,0.8919914 -0.323128,0.553232 0.09067,1.228853 0.243967,1.45735 0.280663,0.274327 0.398449,0.38487 0.398449,0.38487 0,0 -2.007366,2.506135 -2.789684,3.408979 -0.717301,0.829838 -1.218103,1.746399 -1.871691,2.626094 -0.444566,0.929948 -0.85694,1.81509 -1.229992,2.774672 -0.324048,1.071996 -0.728882,2.125929 -1.00121,3.209489 -0.151208,1.324807 -0.422481,2.641914 -0.348293,3.981175 0.234738,1.758169 0.456046,3.462704 0.795878,5.204628 0.472045,1.363458 0.815199,2.769598 1.317189,4.122337 -1.247557,-1.873134 -2.226717,-3.930814 -2.856876,-6.092063 -0.513446,-1.726082 -0.841342,-3.538125 -0.625128,-5.34142 0.288148,-2.470509 0.895588,-5.144113 2.196183,-7.271482 1.12283,-2.079357 2.847175,-4.00636 4.638529,-5.234577 0.494994,-0.37887 1.777649,-1.391945 1.777649,-1.391945 0,0 -1.293758,-0.863023 -1.464998,-1.877984 0.0587,-0.4944592 0.73917,-0.6270263 1.152517,-0.7398743 0.383993,-0.092722 0.646906,-0.093705 0.723321,-0.096737 z"
       id="path5"
       sodipodi:nodetypes="ccccccccccccccccccsc" />
    <path
       style="display:inline;opacity:0.2;fill:#000000;fill-opacity:1;fill-rule:evenodd;stroke:none;stroke-width:1;stroke-linecap:round;filter:url(#filter8)"
       d="m 25.427744,9.1746453 c 0.65455,0.1938074 0.438548,0.8682567 0.846718,1.2272797 0.323128,0.553231 0.09687,0.931094 -0.08955,1.43451 -0.17731,0.311534 0.419355,1.144756 0.419355,1.144756 0,0 1.831262,2.126019 2.61358,3.028863 0.717301,0.829838 1.470465,-0.831924 -0.906027,-2.857615 -0.494994,-0.37887 -1.22763,-0.851794 -1.22763,-0.851794 0,0 0.704951,-1.190551 0.874124,-1.98227 C 27.899658,9.8239174 27.368462,9.0581217 26.955115,8.9452737 26.571122,8.8525513 25.590099,8.5072132 25.532986,8.7420028 Z"
       id="path5-9"
       sodipodi:nodetypes="cccccccccsc" />
    <path
       style="display:inline;opacity:0.2;fill:#000000;fill-opacity:1;fill-rule:evenodd;stroke:none;stroke-width:1;stroke-linecap:round;filter:url(#filter8-9)"
       d="m 30.493188,17.677718 c 0.444566,0.929948 0.97387,2.189267 1.346922,3.148849 0.324048,1.071996 0.728882,2.125929 1.00121,3.209489 0.151208,1.324807 0.422481,2.641914 0.348293,3.981175 -0.234738,1.758169 -0.456046,3.462704 -0.795878,5.204628 -0.472045,1.363458 -1.189376,3.517953 -1.691366,4.870692 1.396385,-0.169879 3.096988,-4.447659 3.727147,-6.608908 0.513446,-1.726082 1.461216,-4.356436 0.699299,-5.878612 -0.288148,-2.470509 -0.999996,-5.367111 -2.300591,-7.49448 -1.176371,-1.682144 -1.363192,-1.612185 -2.335036,-0.432833 z"
       id="path5-9-1"
       sodipodi:nodetypes="cccccccccc" />
    <path
       style="opacity:0.8;fill:#ffffff;fill-opacity:1;fill-rule:evenodd;stroke:none;stroke-width:1;stroke-linecap:round"
       d="m 16.39076,40.808542 c -0.637033,-0.115591 -1.274066,-0.231182 -1.911099,-0.346773 0.242716,-0.340859 0.530732,-0.667582 0.870157,-0.910908 0.442697,-0.260261 0.855397,-0.570581 1.302073,-0.822265 0.463709,-0.134818 0.936117,-0.245442 1.403375,-0.370577 -0.488049,0.0026 -0.9761,0.0051 -1.464149,0.0077 -1.0255,0.402571 -2.085506,0.799791 -2.947021,1.505317 -0.292884,0.189638 -0.342922,0.657118 -0.03629,0.855821 0.227336,0.147635 0.509004,0.05752 0.763815,0.08168 0.673045,10e-7 1.34609,2e-6 2.019135,3e-6 z"
       id="path4" />
    <path
       style="display:inline;opacity:0.2;fill:#000000;fill-opacity:1;stroke:none;stroke-width:1;stroke-dasharray:none;stroke-opacity:1;filter:url(#filter9)"
       d="m 34.842277,41.911 c 0.309153,-0.695574 1.696737,-0.618485 2.631943,-0.550345 0.822526,0.202694 2.086265,1.175844 2.532545,1.885044 0.327167,0.557094 0.586132,1.317264 0.558985,1.955576 0.05741,1.171272 -2.188122,1.21896 -2.409203,1.184556 L 34.8273,45.740909 38.503084,45.055072 c 0.01644,-0.561498 -0.276958,-1.074675 -0.589441,-1.51944 -0.242809,-0.284496 -0.562264,-0.486073 -0.859298,-0.707608"
       id="path42-2"
       sodipodi:nodetypes="ccccccccc" />
    <path
       style="display:inline;opacity:0.2;fill:#000000;fill-opacity:1;fill-rule:evenodd;stroke:none;stroke-width:1;stroke-linecap:round;filter:url(#filter10)"
       d="M 33.679095,40.808523 35.590194,40.46175 C 35.347478,40.120891 35.059462,39.794168 34.720037,39.550842 34.27734,39.290581 33.86464,38.980261 33.417964,38.728577 32.954255,38.593759 32.481847,38.483135 32.014589,38.358 c 0.355757,-0.675395 1.141465,-0.55714 1.629514,-0.55454 1.0255,0.402571 2.234334,0.965156 3.095849,1.670682 0.292884,0.189638 0.409068,1.682378 0.102436,1.881081 -0.227336,0.147635 -2.857182,0.206348 -1.392201,0.08168 l -1.771088,-0.628382 z"
       id="path4-2"
       sodipodi:nodetypes="ccccccccccc" />
  </g>
</svg>
