<?xml version="1.0" encoding="UTF-8" standalone="no"?>
<svg
   width="50mm"
   height="50mm"
   fill-rule="evenodd"
   clip-rule="evenodd"
   image-rendering="optimizeQuality"
   shape-rendering="geometricPrecision"
   text-rendering="geometricPrecision"
   viewBox="0 1.5 50 50"
   version="1.1"
   id="svg28"
   sodipodi:docname="N.svg"
   inkscape:version="1.4 (1:1.4+202410161351+e7c3feb100)"
   xmlns:inkscape="http://www.inkscape.org/namespaces/inkscape"
   xmlns:sodipodi="http://sodipodi.sourceforge.net/DTD/sodipodi-0.dtd"
   xmlns:xlink="http://www.w3.org/1999/xlink"
   xmlns="http://www.w3.org/2000/svg"
   xmlns:svg="http://www.w3.org/2000/svg">
  <sodipodi:namedview
     id="namedview28"
     pagecolor="#ffffff"
     bordercolor="#000000"
     borderopacity="0.25"
     inkscape:showpageshadow="2"
     inkscape:pageopacity="0.0"
     inkscape:pagecheckerboard="0"
     inkscape:deskcolor="#d1d1d1"
     inkscape:document-units="mm"
     inkscape:zoom="1.8405441"
     inkscape:cx="-32.599057"
     inkscape:cy="113.28172"
     inkscape:window-width="2506"
     inkscape:window-height="1370"
     inkscape:window-x="54"
     inkscape:window-y="33"
     inkscape:window-maximized="1"
     inkscape:current-layer="svg28" />
  <defs
     id="defs13">
    <linearGradient
       id="linearGradient31"
       inkscape:collect="always">
      <stop
         style="stop-color:#ece9df;stop-opacity:1;"
         offset="0"
         id="stop31" />
      <stop
         style="stop-color:#f4e0c8;stop-opacity:1;"
         offset="1"
         id="stop32" />
    </linearGradient>
    <inkscape:path-effect
       effect="mirror_symmetry"
       start_point="30.680413,41.378781"
       end_point="30.680413,46.250773"
       center_point="30.680413,43.814777"
       id="path-effect30"
       is_visible="true"
       lpeversion="1.2"
       lpesatellites=""
       mode="free"
       discard_orig_path="false"
       fuse_paths="false"
       oposite_fuse="false"
       split_items="false"
       split_open="false"
       link_styles="false" />
    <filter
       id="c"
       width="1.128"
       height="1.077"
       x="-.064"
       y="-.038"
       color-interpolation-filters="sRGB">
      <feGaussianBlur
         stdDeviation=".57"
         id="feGaussianBlur1" />
    </filter>
    <filter
       id="f"
       width="1.331"
       height="1.588"
       x="-.165"
       y="-.294"
       color-interpolation-filters="sRGB">
      <feGaussianBlur
         stdDeviation=".211"
         id="feGaussianBlur2" />
    </filter>
    <filter
       id="h"
       width="1.324"
       height="1.269"
       x="-.162"
       y="-.134"
       color-interpolation-filters="sRGB">
      <feGaussianBlur
         stdDeviation=".635"
         id="feGaussianBlur3" />
    </filter>
    <filter
       id="j"
       width="1.022"
       height="1.026"
       x="-.011"
       y="-.013"
       color-interpolation-filters="sRGB">
      <feGaussianBlur
         stdDeviation=".018"
         id="feGaussianBlur4" />
    </filter>
    <filter
       id="l"
       width="1.0070102"
       height="1.0089907"
       x="-0.0035050998"
       y="-0.0044953486"
       color-interpolation-filters="sRGB">
      <feGaussianBlur
         stdDeviation="0.011071734"
         id="feGaussianBlur5" />
    </filter>
    <filter
       id="n"
       width="1.479"
       height="1.139"
       x="-.239"
       y="-.07"
       color-interpolation-filters="sRGB">
      <feGaussianBlur
         stdDeviation=".279"
         id="feGaussianBlur6" />
    </filter>
    <filter
       id="d"
       width="1.1276979"
       height="1.0768496"
       x="-0.063848933"
       y="-0.038424807"
       color-interpolation-filters="sRGB">
      <feGaussianBlur
         stdDeviation=".57"
         id="feGaussianBlur7" />
    </filter>
    <filter
       id="g"
       width="1.4690036"
       height="1.8334894"
       x="-0.23450179"
       y="-0.41674472"
       color-interpolation-filters="sRGB">
      <feGaussianBlur
         stdDeviation=".299"
         id="feGaussianBlur8" />
    </filter>
    <filter
       id="i"
       width="1.238371"
       height="1.19755"
       x="-0.11918549"
       y="-0.098775008"
       color-interpolation-filters="sRGB">
      <feGaussianBlur
         stdDeviation=".467"
         id="feGaussianBlur9" />
    </filter>
    <filter
       id="k"
       width="1.0894103"
       height="1.1035764"
       x="-0.044705153"
       y="-0.051788221"
       color-interpolation-filters="sRGB">
      <feGaussianBlur
         stdDeviation=".073"
         id="feGaussianBlur10" />
    </filter>
    <filter
       id="m"
       width="1.0001193"
       height="1.000153"
       x="-5.9633078e-05"
       y="-7.6480411e-05"
       color-interpolation-filters="sRGB">
      <feGaussianBlur
         stdDeviation="0.00018836599"
         id="feGaussianBlur11" />
    </filter>
    <filter
       id="o"
       width="1.4781197"
       height="1.13921"
       x="-0.23905987"
       y="-0.069604993"
       color-interpolation-filters="sRGB">
      <feGaussianBlur
         stdDeviation=".279"
         id="feGaussianBlur12" />
    </filter>
    <linearGradient
       id="a"
       x1="9.241"
       x2="40.761"
       y1="27.266"
       y2="27.266"
       gradientTransform="matrix(.98495 0 0 .98605 .376 .641)"
       gradientUnits="userSpaceOnUse">
      <stop
         offset="0"
         stop-color="#ece9df"
         id="stop12" />
      <stop
         offset="1"
         stop-color="#f4e0c8"
         id="stop13" />
    </linearGradient>
    <linearGradient
       xlink:href="#a"
       id="b"
       x1="-736.5"
       x2="-696.5"
       y1="-367.96"
       y2="-367.96"
       gradientTransform="matrix(0.99995,0,0,0.99606,740.69,393.31)"
       gradientUnits="userSpaceOnUse" />
    <linearGradient
       xlink:href="#a"
       id="e"
       x1="-116.32"
       x2="-77.199"
       y1="299.9"
       y2="299.9"
       gradientTransform="matrix(1.1045,0,0,1.0827,130.81,-314.94)"
       gradientUnits="userSpaceOnUse" />
    <inkscape:path-effect
       effect="mirror_symmetry"
       start_point="36.928126,-3.6829993"
       end_point="36.928126,36.495574"
       center_point="36.928126,16.406287"
       id="path-effect22"
       is_visible="true"
       lpeversion="1.2"
       lpesatellites=""
       mode="vertical"
       discard_orig_path="false"
       fuse_paths="false"
       oposite_fuse="false"
       split_items="false"
       split_open="false"
       link_styles="false" />
    <inkscape:path-effect
       effect="mirror_symmetry"
       start_point="24.590467,21.167696"
       end_point="24.590467,22.642724"
       center_point="24.590467,21.90521"
       id="path-effect24"
       is_visible="true"
       lpeversion="1.2"
       lpesatellites=""
       mode="free"
       discard_orig_path="false"
       fuse_paths="false"
       oposite_fuse="false"
       split_items="false"
       split_open="false"
       link_styles="false" />
    <inkscape:path-effect
       effect="mirror_symmetry"
       start_point="35.908023,1.330638"
       end_point="35.908023,39.406813"
       center_point="35.908023,20.368726"
       id="path-effect23"
       is_visible="true"
       lpeversion="1.2"
       lpesatellites=""
       mode="vertical"
       discard_orig_path="false"
       fuse_paths="true"
       oposite_fuse="false"
       split_items="false"
       split_open="false"
       link_styles="false" />
    <inkscape:path-effect
       effect="mirror_symmetry"
       start_point="9.583343,-40.166937"
       end_point="9.583343,80.939832"
       center_point="9.583343,20.386447"
       id="path-effect17"
       is_visible="false"
       lpeversion="1.2"
       lpesatellites=""
       mode="vertical"
       discard_orig_path="false"
       fuse_paths="true"
       oposite_fuse="false"
       split_items="false"
       split_open="false"
       link_styles="false" />
    <linearGradient
       inkscape:collect="always"
       xlink:href="#linearGradient36"
       id="linearGradient37"
       x1="8.992981"
       y1="43.832897"
       x2="41.007019"
       y2="43.832897"
       gradientUnits="userSpaceOnUse"
       gradientTransform="translate(5.5176399,-0.01819011)" />
    <linearGradient
       id="linearGradient36"
       inkscape:collect="always">
      <stop
         style="stop-color:#ece9df;stop-opacity:1;"
         offset="0"
         id="stop36" />
      <stop
         style="stop-color:#f4e0c8;stop-opacity:1;"
         offset="1"
         id="stop37" />
    </linearGradient>
    <inkscape:path-effect
       effect="mirror_symmetry"
       start_point="27.619945,1.4098518"
       end_point="27.619945,51.409852"
       center_point="27.619945,26.409852"
       id="path-effect17-9"
       is_visible="true"
       lpeversion="1.2"
       lpesatellites=""
       mode="vertical"
       discard_orig_path="false"
       fuse_paths="true"
       oposite_fuse="false"
       split_items="false"
       split_open="false"
       link_styles="false" />
    <inkscape:path-effect
       effect="mirror_symmetry"
       start_point="24.590467,21.167696"
       end_point="24.590467,22.642724"
       center_point="24.590467,21.90521"
       id="path-effect24-3"
       is_visible="true"
       lpeversion="1.2"
       lpesatellites=""
       mode="free"
       discard_orig_path="false"
       fuse_paths="false"
       oposite_fuse="false"
       split_items="false"
       split_open="false"
       link_styles="false" />
    <inkscape:path-effect
       effect="mirror_symmetry"
       start_point="24.47,18.710226"
       end_point="24.47,56.7864"
       center_point="24.47,37.748313"
       id="path-effect23-1"
       is_visible="true"
       lpeversion="1.2"
       lpesatellites=""
       mode="free"
       discard_orig_path="false"
       fuse_paths="true"
       oposite_fuse="false"
       split_items="false"
       split_open="false"
       link_styles="false" />
    <linearGradient
       inkscape:collect="always"
       xlink:href="#linearGradient31"
       id="linearGradient32"
       x1="9.4929591"
       y1="26.785491"
       x2="42.840604"
       y2="26.785491"
       gradientUnits="userSpaceOnUse"
       gradientTransform="translate(-2.9714126)" />
    <filter
       inkscape:collect="always"
       style="color-interpolation-filters:sRGB"
       id="filter40"
       x="-0.18259458"
       y="-0.07685662"
       width="1.3651892"
       height="1.1537132">
      <feGaussianBlur
         inkscape:collect="always"
         stdDeviation="0.19375298"
         id="feGaussianBlur40" />
    </filter>
    <filter
       inkscape:collect="always"
       style="color-interpolation-filters:sRGB"
       id="filter41"
       x="-0.055741535"
       y="-0.11713688"
       width="1.1114831"
       height="1.2342738">
      <feGaussianBlur
         inkscape:collect="always"
         stdDeviation="0.29733245"
         id="feGaussianBlur41" />
    </filter>
    <filter
       inkscape:collect="always"
       style="color-interpolation-filters:sRGB"
       id="filter43"
       x="-0.047600621"
       y="-0.17672416"
       width="1.0952012"
       height="1.3534483">
      <feGaussianBlur
         inkscape:collect="always"
         stdDeviation="0.32559307"
         id="feGaussianBlur43" />
    </filter>
    <inkscape:path-effect
       effect="mirror_symmetry"
       start_point="24.47,18.710226"
       end_point="24.47,56.7864"
       center_point="24.47,37.748313"
       id="path-effect23-1-7"
       is_visible="true"
       lpeversion="1.2"
       lpesatellites=""
       mode="free"
       discard_orig_path="false"
       fuse_paths="true"
       oposite_fuse="false"
       split_items="false"
       split_open="false"
       link_styles="false" />
    <filter
       inkscape:collect="always"
       style="color-interpolation-filters:sRGB"
       id="filter45"
       x="-0.32467311"
       y="-0.41158687"
       width="1.6493462"
       height="1.8231737">
      <feGaussianBlur
         inkscape:collect="always"
         stdDeviation="0.67091952"
         id="feGaussianBlur45" />
    </filter>
    <filter
       inkscape:collect="always"
       style="color-interpolation-filters:sRGB"
       id="filter46"
       x="-0.070601366"
       y="-0.05334306"
       width="1.1412027"
       height="1.1066861">
      <feGaussianBlur
         inkscape:collect="always"
         stdDeviation="0.67987627"
         id="feGaussianBlur46" />
    </filter>
  </defs>
  <g
     inkscape:groupmode="layer"
     id="layer6"
     inkscape:label="Layer 1"
     style="display:inline;stroke:#000000;stroke-opacity:1">
    <path
       style="opacity:1;fill:url(#linearGradient32);stroke:#000000;stroke-width:1;stroke-opacity:1"
       d="m 39.273208,41.288733 c 0.03994,-1.65538 0.126435,-3.916188 0.08443,-5.080529 -0.042,-1.164342 -0.193073,-3.864076 -0.519073,-5.725992 -0.326,-1.861916 -0.671824,-3.45133 -1.232966,-5.091279 -0.561142,-1.639948 -0.988458,-3.277744 -1.790902,-4.66722 -0.802444,-1.389476 -1.041155,-2.157396 -2.28617,-3.483272 1.73544,-0.556104 0.111539,-0.0224 2.048903,-0.506355 1.261096,-0.315025 1.343501,-0.647148 0.461938,-1.740696 -0.206682,-0.256382 -1.828851,-0.880513 -3.768584,-1.524075 -1.939732,-0.643563 -4.197027,-1.306557 -5.67396,-1.640665 1.667659,-0.513799 2.615721,-1.463348 4.245388,-2.1787919 0.681035,-0.2989824 2.768008,-1.4046283 1.688545,-2.4911687 -1.121164,-1.1285151 -5.66037,-0.333055 -8.147721,0.09434 -2.61927,0.4500624 -4.008264,1.05248 -4.51088,1.3908489 -0.774266,0.5212485 -3.551097,1.4556267 -4.22717,2.4923607 -1.100586,-0.02461 -2.256725,0.397157 -3.166972,1.295418 -1.237619,1.221324 -2.048554,2.575784 -2.8731646,3.802303 -0.824611,1.226519 -1.404995,2.64569 -1.726153,3.637255 -0.321158,0.991565 -0.552905,1.605274 -0.698589,2.697047 -0.145684,1.091773 -0.4109636,1.380291 0.282532,3.061962 0.693496,1.68167 2.28074,1.866669 3.2046676,2.136258 0.923928,0.269589 2.925143,0.03595 4.393973,-0.197505 1.46883,-0.233454 3.722379,-1.351995 4.825932,-1.85658 1.103553,-0.504585 1.941373,-2.506255 1.941373,-2.506255 0,0 0.165426,0.431341 0.279782,1.297409 0.114356,0.866068 -0.811893,2.242896 -1.510237,3.099777 -0.698344,0.856881 -1.071428,0.877404 -2.243062,2.091663 -1.171634,1.214259 -2.137867,2.344294 -2.855696,3.506477 -0.717829,1.162183 -1.438994,3.432726 -1.559796,4.065694 -0.120802,0.632968 -0.418319,3.153815 -0.4122,4.299896 0.0061,1.146081 25.705889,1.377055 25.745828,-0.278325 z"
       id="path29"
       sodipodi:nodetypes="zzzzzcssscsssscszzzzzzzczzzzzzzz" />
    <circle
       style="display:inline;opacity:0.8;fill:#ffffff;fill-opacity:1;stroke:none;stroke-width:1.21582;stroke-linejoin:miter;stroke-dasharray:none;stroke-opacity:1"
       id="path22-5-1"
       cx="14.479626"
       cy="15.870837"
       r="0.92604166" />
    <circle
       style="display:inline;fill:#000000;fill-opacity:1;stroke:none;stroke-width:1.21582;stroke-linejoin:miter;stroke-dasharray:none;stroke-opacity:1"
       id="path22-5"
       cx="14.873228"
       cy="16.14036"
       r="0.92604166" />
    <path
       style="display:inline;opacity:0.8;fill:#ffffff;fill-opacity:1;stroke:none;stroke-width:0.977;stroke-linejoin:miter;stroke-dasharray:none;stroke-opacity:1"
       d="m 24.47,20.265441 c -0.24458,-0.0028 -0.780839,0.0145 -0.806328,0.218413 -0.03307,0.264583 0.198437,0.595312 0.429948,0.810286 0.138389,0.128504 0.282687,0.174284 0.37638,0.190322 0.09369,-0.01604 0.237991,-0.06182 0.37638,-0.190322 0.231511,-0.214974 0.463018,-0.545703 0.429948,-0.810286 C 25.250839,20.279937 24.71458,20.262648 24.47,20.265441 Z"
       id="path23-2-8"
       inkscape:path-effect="#path-effect23-1-7"
       inkscape:original-d="m 24.589713,20.26888 c 0,0 -0.892969,-0.04961 -0.926041,0.214974 -0.03307,0.264583 0.198437,0.595312 0.429948,0.810286 0.23151,0.214974 0.479557,0.198438 0.479557,0.198438 l 0.115755,0.03307"
       sodipodi:nodetypes="csscc"
       transform="matrix(1.0160693,-0.81400102,0.82102709,1.0248396,-33.320605,22.132023)" />
    <path
       style="display:inline;fill:url(#linearGradient37);stroke:#000000;stroke-width:1;stroke-dasharray:none;stroke-opacity:1"
       d="M 30.680413,46.250773 H 15.020691 V 45.93473 c 0,0 -0.08718,-1.525719 0.250654,-2.255885 0.337838,-0.730165 0.501308,-1.013513 1.373147,-1.678291 0.87184,-0.664777 1.896252,-0.621187 1.896252,-0.621187 h 12.13406 m 0.0056,4.871406 H 46.340135 V 45.93473 c 0,0 0.08718,-1.525719 -0.250654,-2.255885 -0.337838,-0.730165 -0.501308,-1.013513 -1.373147,-1.678291 -0.87184,-0.664777 -1.896252,-0.621187 -1.896252,-0.621187 h -12.13406"
       id="path16-7"
       sodipodi:nodetypes="cccsscc"
       inkscape:path-effect="#path-effect30"
       inkscape:original-d="M 30.680413,46.250773 H 15.020691 V 45.93473 c 0,0 -0.08718,-1.525719 0.250654,-2.255885 0.337838,-0.730165 0.501308,-1.013513 1.373147,-1.678291 0.87184,-0.664777 1.896252,-0.621187 1.896252,-0.621187 h 12.13406"
       transform="translate(-4.5589126)" />
    <path
       style="display:inline;fill:none;fill-opacity:1;stroke:#000000;stroke-width:0.75;stroke-linejoin:miter;stroke-dasharray:none;stroke-opacity:1"
       d="m 24.590467,21.167696 v 1.356393 l -1.046931,0.761753 m 1.046931,-2.118146 v 1.356393 l 1.046931,0.761753"
       id="path24-6"
       inkscape:path-effect="#path-effect24-3"
       inkscape:original-d="m 24.590467,21.167696 v 1.356393 l -1.046931,0.761753"
       sodipodi:nodetypes="ccc"
       transform="rotate(-40.308272,21.188547,44.289633)" />
    <path
       style="display:inline;fill:#000000;fill-opacity:1;stroke:none;stroke-width:0.977;stroke-linejoin:miter;stroke-dasharray:none;stroke-opacity:1"
       d="m 24.47,20.265441 c -0.24458,-0.0028 -0.780839,0.0145 -0.806328,0.218413 -0.03307,0.264583 0.198437,0.595312 0.429948,0.810286 0.138389,0.128504 0.282687,0.174284 0.37638,0.190322 0.09369,-0.01604 0.237991,-0.06182 0.37638,-0.190322 0.231511,-0.214974 0.463018,-0.545703 0.429948,-0.810286 C 25.250839,20.279937 24.71458,20.262648 24.47,20.265441 Z"
       id="path23-2"
       inkscape:path-effect="#path-effect23-1"
       inkscape:original-d="m 24.589713,20.26888 c 0,0 -0.892969,-0.04961 -0.926041,0.214974 -0.03307,0.264583 0.198437,0.595312 0.429948,0.810286 0.23151,0.214974 0.479557,0.198438 0.479557,0.198438 l 0.115755,0.03307"
       sodipodi:nodetypes="csscc"
       transform="matrix(1.0160693,-0.81400103,0.82102708,1.0248396,-33.317147,22.599325)" />
    <path
       style="opacity:0.7;fill:#ffffff;stroke:none;stroke-width:1;stroke-linecap:round;stroke-linejoin:bevel;stroke-opacity:1"
       d="m 21.481421,27.293324 c -0.736459,1.746296 -1.420897,3.559881 -2.671145,5.018665 -1.005659,1.194236 -2.023511,2.408185 -2.66237,3.84819 -0.50236,1.076694 -0.798178,2.239032 -1.370819,3.28555 -0.219673,0.401762 -0.560696,1.187306 -0.71143,1.348548 0.14172,-1.702336 0.24107,-3.440905 0.867026,-5.050385 0.467976,-1.414571 1.188242,-2.745482 2.162076,-3.876496 0.961639,-1.180729 2.02728,-2.27983 3.213938,-3.23575 0.459468,-0.384525 0.826811,-0.853094 1.172724,-1.338322 z"
       id="path31" />
    <path
       style="opacity:1;fill:none;stroke:#000000;stroke-width:1;stroke-linecap:round;stroke-linejoin:bevel;stroke-opacity:1"
       d="m 27.333206,11.965677 c 0,0 -3.578945,-0.795053 -5.369148,-0.924351 -1.999734,-0.144432 -6.064836,0.0991 -6.064836,0.0991"
       id="path38"
       sodipodi:nodetypes="csc" />
    <path
       style="opacity:1;fill:none;stroke:#000000;stroke-width:1;stroke-linecap:round;stroke-linejoin:bevel;stroke-opacity:1"
       d="m 33.901177,17.061239 c -1.819052,0.06829 -3.638192,0.183618 -5.458907,0.104985 -1.529678,0.0098 -3.044051,-0.22481 -4.558536,-0.410805 -1.67528,-0.485556 -3.350488,-0.973047 -5.004724,-1.527027"
       id="path39" />
    <path
       style="display:inline;opacity:0.15;mix-blend-mode:normal;fill:#000000;fill-opacity:1;stroke:none;stroke-width:1;stroke-linecap:round;stroke-linejoin:bevel;stroke-opacity:1;filter:url(#filter40)"
       d="m 21.195534,27.992157 c 0.840443,-0.596106 1.427395,-1.454903 2.043892,-2.262632 0.298699,-0.325435 0.523954,-0.746653 0.501188,-1.199647 -0.01426,-0.453022 -0.185997,-0.880064 -0.338788,-1.300558 -0.425654,-0.405207 -0.662502,-1.032926 -1.253551,-1.237157 -0.151002,-0.07223 -0.307629,-0.09473 -0.265178,0.127632 -0.02092,0.512495 0.143672,1.010929 0.135969,1.523634 0.0246,0.929052 -0.334721,1.80834 -0.433362,2.723708 -0.08044,0.551528 -0.125518,1.123117 -0.39017,1.62502 z"
       id="path40" />
    <path
       style="opacity:0.15;mix-blend-mode:normal;fill:#000000;fill-opacity:1;stroke:none;stroke-width:1;stroke-linecap:round;stroke-linejoin:bevel;stroke-opacity:1;filter:url(#filter41)"
       d="m 21.825942,21.876957 c -0.839335,0.790585 -1.613258,1.661976 -2.495897,2.399374 -1.003648,0.631572 -1.977229,1.326996 -3.116198,1.696302 -1.113826,0.530448 -2.34239,0.700904 -3.541451,0.939378 -1.122789,0.03633 -2.252951,0.156967 -3.3645466,-0.06067 -0.88381,-0.174025 0.556726,0.363071 0.7992106,0.537357 0.91128,0.563667 1.938153,0.693514 2.976491,0.489292 1.343151,-0.05148 2.633465,-0.450743 3.931801,-0.762794 1.135994,-0.516744 2.308802,-0.971875 3.312553,-1.729583 0.637546,-0.347252 0.923007,-1.056606 1.339005,-1.619475 0.146214,-0.596967 0.09098,-1.26689 0.159032,-1.889184 z"
       id="path41" />
    <path
       style="opacity:0.15;mix-blend-mode:normal;fill:#000000;fill-opacity:1;stroke:none;stroke-width:1;stroke-linecap:round;stroke-linejoin:bevel;stroke-opacity:1;filter:url(#filter46)"
       d="m 18.735257,15.659649 c 2.766465,1.316226 5.414574,2.993536 8.471529,3.558294 1.957213,0.436099 3.924502,0.906173 5.911287,1.136778 1.087035,1.066384 1.664205,2.583639 2.119828,4.022091 0.372661,2.342964 0.743085,4.7016 0.868349,7.074832 0.169927,3.057497 -0.137486,6.110547 -0.568197,9.133682 -0.04307,1.135091 0.535414,2.183069 0.790315,3.276103 0.233144,0.769917 0.466288,1.539833 0.699432,2.30975 1.534197,-0.09851 3.638318,0.283118 4.818951,-0.113241 -0.271341,-0.933452 -0.02516,-2.152705 -0.719212,-2.885425 -0.599898,-0.533809 -1.199797,-1.067617 -1.799695,-1.601425 -0.02625,-3.385991 0.168155,-6.783426 -0.299586,-10.150204 -0.346579,-2.415912 -0.723716,-4.871933 -1.703657,-7.12489 -0.858912,-2.599153 -2.083163,-5.080725 -3.782786,-7.234756 -3.235584,0.105534 -6.510629,0.281536 -9.711342,-0.296932 -1.669117,-0.510825 -3.314683,-1.183057 -5.095216,-1.104657 z"
       id="path42" />
    <path
       style="opacity:0.15;mix-blend-mode:normal;fill:#000000;fill-opacity:1;stroke:none;stroke-width:1;stroke-linecap:round;stroke-linejoin:bevel;stroke-opacity:1;filter:url(#filter43)"
       d="m 17.358301,10.445074 c 1.918361,-0.158835 3.835358,-0.373737 5.754625,-0.4969299 1.14819,0.1148189 2.296381,0.2296379 3.444571,0.3444569 1.647984,-0.6871224 3.317035,-1.331434 4.896732,-2.1688329 0.383785,-0.1918928 0.767571,-0.3837856 1.151357,-0.5756784 0.01694,0.35577 0.03388,0.7115401 0.05082,1.0673101 -1.411723,0.822387 -2.899242,1.5220402 -4.259048,2.4296642 -0.443875,0.308246 -0.887749,0.616492 -1.331624,0.924738 -1.601812,-0.25891 -3.192216,-0.619916 -4.801573,-0.813188 -2.007999,0 -4.015999,0 -6.023999,0 0.372713,-0.23718 0.745426,-0.47436 1.118139,-0.71154 z"
       id="path43" />
    <path
       style="opacity:0.8;fill:#ffffff;fill-opacity:1;stroke:none;stroke-width:1;stroke-linecap:round;stroke-linejoin:bevel;stroke-opacity:1"
       d="m 7.6842624,22.793381 c 0.381131,-2.39227 1.293563,-4.701624 2.6564306,-6.704454 1.00031,-1.481099 1.970345,-3.112128 3.559111,-4.030151 1.043685,-0.570784 2.253301,-0.350326 3.386263,-0.471699 0.442324,-0.02299 1.240225,-0.04461 0.342198,0.03309 -0.975965,0.181009 -1.739648,0.462482 -2.622509,0.982127 -0.703274,0.55808 -1.277628,0.999256 -1.809048,1.735846 -0.929784,1.044517 -1.89005,2.195875 -2.593257,3.401986 -1.0062396,1.725859 -2.3882816,3.108565 -2.9191886,5.053255 z"
       id="path44"
       sodipodi:nodetypes="cccccccsc" />
    <path
       style="display:inline;opacity:0.8;fill:#ffffff;fill-opacity:1;stroke:none;stroke-width:1;stroke-dasharray:none;stroke-opacity:1"
       d="m 16.182477,41.908476 c -0.937769,0.03205 -1.877407,0.0099 -2.813844,0.07804 -0.938994,0.241078 -1.743823,0.942 -2.137581,1.824191 -0.202244,0.487405 -0.263106,1.022468 -0.245167,1.546625 -0.0636,0.165264 -0.02042,0.462134 0.220286,0.381053 1.663761,0 3.327522,0 4.991283,0 -1.225261,-0.228612 -2.450523,-0.457225 -3.675784,-0.685837 -0.0086,-0.595446 0.299286,-1.141794 0.658217,-1.595811 0.233206,-0.245912 0.520476,-0.429784 0.790522,-0.631237"
       id="path42-4" />
    <path
       style="display:inline;opacity:1;mix-blend-mode:normal;fill:#ffffff;fill-opacity:1;stroke:none;stroke-width:1;stroke-linecap:round;stroke-linejoin:bevel;stroke-opacity:1;filter:url(#filter45)"
       d="m 14.432451,22.451967 c 0,0 1.201078,-1.643688 1.976601,-2.300043 0.810064,-0.685589 2.98287,-1.40159 2.98287,-1.40159 0,0 -2.627811,-0.629095 -3.629758,0.287505 -0.89656,0.82019 -1.329713,3.414128 -1.329713,3.414128 z"
       id="path45"
       sodipodi:nodetypes="cscsc" />
  </g>
</svg>
