<?xml version="1.0" encoding="UTF-8" standalone="no"?>
<svg
   width="50mm"
   height="50mm"
   fill-rule="evenodd"
   clip-rule="evenodd"
   image-rendering="optimizeQuality"
   shape-rendering="geometricPrecision"
   text-rendering="geometricPrecision"
   viewBox="0 1.5 50 50"
   version="1.1"
   id="svg11"
   sodipodi:docname="P.svg"
   inkscape:version="1.4 (1:1.4+202410161351+e7c3feb100)"
   xmlns:inkscape="http://www.inkscape.org/namespaces/inkscape"
   xmlns:sodipodi="http://sodipodi.sourceforge.net/DTD/sodipodi-0.dtd"
   xmlns:xlink="http://www.w3.org/1999/xlink"
   xmlns="http://www.w3.org/2000/svg"
   xmlns:svg="http://www.w3.org/2000/svg">
  <sodipodi:namedview
     id="namedview11"
     pagecolor="#ffffff"
     bordercolor="#000000"
     borderopacity="0.25"
     inkscape:showpageshadow="2"
     inkscape:pageopacity="0.0"
     inkscape:pagecheckerboard="0"
     inkscape:deskcolor="#d1d1d1"
     inkscape:document-units="mm"
     inkscape:zoom="5.6568542"
     inkscape:cx="52.060737"
     inkscape:cy="89.007067"
     inkscape:window-width="2506"
     inkscape:window-height="1370"
     inkscape:window-x="54"
     inkscape:window-y="33"
     inkscape:window-maximized="1"
     inkscape:current-layer="layer1" />
  <defs
     id="defs5">
    <linearGradient
       id="linearGradient8"
       inkscape:collect="always">
      <stop
         style="stop-color:#ece9df;stop-opacity:1;"
         offset="0"
         id="stop8" />
      <stop
         style="stop-color:#f4e0c8;stop-opacity:1;"
         offset="1"
         id="stop9" />
    </linearGradient>
    <linearGradient
       id="linearGradient1"
       inkscape:collect="always">
      <stop
         style="stop-color:#ece9df;stop-opacity:1;"
         offset="0"
         id="stop3" />
      <stop
         style="stop-color:#f4e0c8;stop-opacity:1;"
         offset="1"
         id="stop4" />
    </linearGradient>
    <inkscape:path-effect
       effect="mirror_symmetry"
       start_point="24.590467,21.167696"
       end_point="24.590467,22.642725"
       center_point="24.590467,21.90521"
       id="path-effect24"
       is_visible="true"
       lpeversion="1.2"
       lpesatellites=""
       mode="free"
       discard_orig_path="false"
       fuse_paths="false"
       oposite_fuse="false"
       split_items="false"
       split_open="false"
       link_styles="false" />
    <inkscape:path-effect
       effect="mirror_symmetry"
       start_point="24.616502,6.2689063"
       end_point="24.616502,44.345082"
       center_point="24.616502,25.306994"
       id="path-effect23"
       is_visible="true"
       lpeversion="1.2"
       lpesatellites=""
       mode="vertical"
       discard_orig_path="false"
       fuse_paths="true"
       oposite_fuse="false"
       split_items="false"
       split_open="false"
       link_styles="false" />
    <inkscape:path-effect
       effect="mirror_symmetry"
       start_point="24.224582,4.7284484"
       end_point="24.224582,44.907021"
       center_point="24.224582,24.817735"
       id="path-effect22"
       is_visible="true"
       lpeversion="1.2"
       lpesatellites=""
       mode="vertical"
       discard_orig_path="false"
       fuse_paths="false"
       oposite_fuse="false"
       split_items="false"
       split_open="false"
       link_styles="false" />
    <inkscape:path-effect
       effect="simplify"
       id="path-effect17"
       is_visible="false"
       lpeversion="1.3"
       threshold="5"
       steps="1"
       smooth_angles="360"
       helper_size="10"
       simplify_individual_paths="false"
       simplify_just_coalesce="false" />
    <inkscape:path-effect
       effect="mirror_symmetry"
       start_point="24.88,11.271266"
       end_point="24.88,28.471162"
       center_point="24.88,19.871214"
       id="path-effect16"
       is_visible="true"
       lpeversion="1.2"
       lpesatellites=""
       mode="free"
       discard_orig_path="false"
       fuse_paths="true"
       oposite_fuse="false"
       split_items="false"
       split_open="false"
       link_styles="false" />
    <inkscape:path-effect
       effect="mirror_symmetry"
       start_point="24.98,24.778117"
       end_point="24.98,46.268963"
       center_point="24.98,35.52354"
       id="path-effect15"
       is_visible="true"
       lpeversion="1.2"
       lpesatellites=""
       mode="free"
       discard_orig_path="false"
       fuse_paths="true"
       oposite_fuse="false"
       split_items="false"
       split_open="false"
       link_styles="false" />
    <inkscape:path-effect
       effect="simplify"
       id="path-effect14"
       is_visible="true"
       lpeversion="1.3"
       threshold="5"
       steps="1"
       smooth_angles="64.109589"
       helper_size="10"
       simplify_individual_paths="false"
       simplify_just_coalesce="false" />
    <inkscape:path-effect
       effect="mirror_symmetry"
       start_point="11.44,24.996077"
       end_point="11.44,18.282912"
       center_point="11.44,21.639494"
       id="path-effect13"
       is_visible="true"
       lpeversion="1.2"
       lpesatellites=""
       mode="free"
       discard_orig_path="false"
       fuse_paths="true"
       oposite_fuse="false"
       split_items="false"
       split_open="false"
       link_styles="false" />
    <linearGradient
       id="a"
       x1="9.241"
       x2="40.761"
       y1="27.266"
       y2="27.266"
       gradientTransform="matrix(.98495 0 0 .98605 .376 .641)"
       gradientUnits="userSpaceOnUse">
      <stop
         offset="0"
         stop-color="#ece9df"
         id="stop1" />
      <stop
         offset="1"
         stop-color="#f4e0c8"
         id="stop2" />
    </linearGradient>
    <linearGradient
       xlink:href="#a"
       id="b"
       x1="779.03"
       x2="794.63"
       y1="54.449"
       y2="54.449"
       gradientTransform="matrix(.98131 0 0 .97235 -747.13 -34.817)"
       gradientUnits="userSpaceOnUse" />
    <linearGradient
       xlink:href="#a"
       id="c"
       x1="777.73"
       x2="795.93"
       y1="63.423"
       y2="63.423"
       gradientTransform="matrix(.98131 0 0 .97235 -747.13 -34.817)"
       gradientUnits="userSpaceOnUse" />
    <linearGradient
       xlink:href="#a"
       id="d"
       x1="772.83"
       x2="800.83"
       y1="74.581"
       y2="74.581"
       gradientTransform="matrix(.98131 0 0 .97235 -747.13 -34.817)"
       gradientUnits="userSpaceOnUse" />
    <filter
       id="e"
       width="1.099"
       height="1.093"
       x="-.049"
       y="-.047"
       color-interpolation-filters="sRGB">
      <feGaussianBlur
         stdDeviation=".344"
         id="feGaussianBlur2" />
    </filter>
    <filter
       id="g"
       width="1.151"
       height="1.07"
       x="-.075"
       y="-.035"
       color-interpolation-filters="sRGB">
      <feGaussianBlur
         stdDeviation=".269"
         id="feGaussianBlur3" />
    </filter>
    <filter
       id="f"
       width="1.0986873"
       height="1.0933831"
       x="-0.049343654"
       y="-0.046691552"
       color-interpolation-filters="sRGB">
      <feGaussianBlur
         stdDeviation=".344"
         id="feGaussianBlur4" />
    </filter>
    <filter
       id="h"
       width="1.150894"
       height="1.0702462"
       x="-0.075447001"
       y="-0.035123105"
       color-interpolation-filters="sRGB">
      <feGaussianBlur
         stdDeviation=".269"
         id="feGaussianBlur5" />
    </filter>
    <filter
       inkscape:collect="always"
       style="color-interpolation-filters:sRGB"
       id="filter20"
       x="-0.043480957"
       y="-0.053590373"
       width="1.0869619"
       height="1.1071807">
      <feGaussianBlur
         inkscape:collect="always"
         stdDeviation="0.12118572"
         id="feGaussianBlur20" />
    </filter>
    <filter
       inkscape:collect="always"
       style="color-interpolation-filters:sRGB"
       id="filter21"
       x="-0.045942935"
       y="-0.049227067"
       width="1.0918859"
       height="1.0984541">
      <feGaussianBlur
         inkscape:collect="always"
         stdDeviation="0.29729728"
         id="feGaussianBlur21" />
    </filter>
    <filter
       inkscape:collect="always"
       style="color-interpolation-filters:sRGB"
       id="filter22"
       x="-0.076074751"
       y="-0.035130434"
       width="1.1521495"
       height="1.0702609">
      <feGaussianBlur
         inkscape:collect="always"
         stdDeviation="0.23382551"
         id="feGaussianBlur22" />
    </filter>
    <linearGradient
       inkscape:collect="always"
       xlink:href="#linearGradient1"
       id="linearGradient4"
       x1="11.207985"
       y1="35.52354"
       x2="38.752015"
       y2="35.52354"
       gradientUnits="userSpaceOnUse" />
    <linearGradient
       inkscape:collect="always"
       xlink:href="#linearGradient8"
       id="linearGradient9"
       x1="13.031131"
       y1="19.829723"
       x2="36.728869"
       y2="19.829723"
       gradientUnits="userSpaceOnUse" />
  </defs>
  <g
     inkscape:groupmode="layer"
     id="layer1"
     inkscape:label="Layer 1"
     style="display:inline">
    <path
       style="fill:url(#linearGradient4);fill-opacity:1;stroke:#000000;stroke-width:1;stroke-linejoin:miter;stroke-dasharray:none;stroke-opacity:1"
       d="M 24.98,46.268963 H 11.726242 c 0.03276,-1.340284 0.172816,-2.689929 0.571115,-3.975063 0.298612,-0.963489 0.788739,-1.859187 1.398092,-2.666777 1.124799,-1.490722 2.498066,-2.764722 3.771979,-4.123018 0.983763,-1.048928 1.914667,-2.165818 2.601047,-3.436648 0.313281,-0.58004 0.558757,-1.194393 0.754641,-1.823513 0.549348,-1.764335 0.762756,-3.621791 0.733117,-5.465827 H 24.98 28.403767 c -0.02964,1.844036 0.183769,3.701492 0.733117,5.465827 0.195884,0.62912 0.44136,1.243473 0.754641,1.823513 0.68638,1.27083 1.617284,2.38772 2.601047,3.436648 1.273913,1.358296 2.64718,2.632296 3.771979,4.123018 0.609353,0.80759 1.09948,1.703288 1.398092,2.666777 0.398299,1.285134 0.538359,2.634779 0.571115,3.975063 z"
       id="path13"
       inkscape:path-effect="#path-effect14;#path-effect15"
       inkscape:original-d="m 25.102032,46.268963 c -4.458597,0 -8.917193,0 -13.37579,0 0.05524,-2.326206 0.449302,-4.789653 1.969207,-6.64184 2.256088,-2.995111 5.645972,-5.21774 6.955258,-8.864851 0.676604,-1.910965 0.938436,-3.961721 0.905526,-5.984155 1.18017,0 2.360341,0 3.540511,0" />
    <path
       style="fill:url(#linearGradient9);fill-opacity:1;stroke:#000000;stroke-width:1;stroke-linejoin:miter;stroke-dasharray:none;stroke-opacity:1"
       d="M 24.88,11.274053 22.63243,11.4615 c -1.209543,0.100875 -2.677523,0.946326 -3.737205,1.813338 -2.039514,1.635397 -2.921683,4.19887 -3.874178,6.540016 -0.916285,2.418201 -1.628604,4.63218 -1.467169,7.479699 0.838104,2.242894 2.30136,0.555511 2.959122,-0.678132 l 0.772795,-1.987706 0.590041,-1.514766 0.412575,1.37651 c 0.719296,1.137764 1.894935,2.053268 3.103572,2.470317 l 1.633682,0.215769 1.541209,0.03082 v 0 H 24.88 25.193126 v 0 l 1.541209,-0.03082 1.633682,-0.215769 c 1.208637,-0.417049 2.384276,-1.332553 3.103572,-2.470317 l 0.412575,-1.37651 0.590041,1.514766 0.772795,1.987706 c 0.657762,1.233643 2.121018,2.921026 2.959122,0.678132 0.161435,-2.847519 -0.550884,-5.061498 -1.467169,-7.479699 C 33.786458,17.473708 32.904289,14.910235 30.864775,13.274838 29.805093,12.407826 28.337113,11.562375 27.12757,11.4615 Z"
       id="path15"
       inkscape:path-effect="#path-effect16"
       inkscape:original-d="M 24.91342,11.271266 22.63243,11.4615 c -1.209543,0.100875 -2.677523,0.946326 -3.737205,1.813338 -2.039514,1.635397 -2.921683,4.19887 -3.874178,6.540016 -0.916285,2.418201 -1.628604,4.63218 -1.467169,7.479699 0.838104,2.242894 2.30136,0.555511 2.959122,-0.678132 l 0.772795,-1.987706 0.590041,-1.514766 0.412575,1.37651 c 0.719296,1.137764 1.894935,2.053268 3.103572,2.470317 l 1.633682,0.215769 1.541209,0.03082 v 0 h 0.348736"
       sodipodi:nodetypes="cscccccccccccc" />
    <path
       style="opacity:0.8;fill:#ffffff;fill-opacity:1;stroke:none;stroke-width:1;stroke-linejoin:miter;stroke-dasharray:none;stroke-opacity:1"
       d="m 21.576929,13.644728 c -1.181062,0.698002 -2.243586,1.606416 -3.024824,2.74115 -1.612402,2.129173 -2.847902,4.519004 -3.91907,6.956486 -0.04542,0.25538 -0.358839,0.916711 -0.196647,0.277404 0.436367,-2.136591 1.387972,-4.110902 2.178414,-6.129012 0.625531,-1.582785 1.677369,-2.992918 3.056851,-3.99769 0.752344,-0.575339 1.553225,-1.131426 2.502013,-1.313236 0.935769,-0.20591 1.897454,-0.323137 2.854733,-0.337869 0.220932,-0.03166 0.648659,0.130068 0.185935,0.186906 -1.369285,0.07135 -2.523543,0.905092 -3.637405,1.615861 z"
       id="path17"
       inkscape:label="path17" />
    <path
       style="display:inline;opacity:0.8;fill:#ffffff;fill-opacity:1;stroke:none;stroke-width:1;stroke-linejoin:miter;stroke-dasharray:none;stroke-opacity:1"
       d="m 15.148213,45.724061 c -0.908166,0 -1.816333,0 -2.724499,0 -0.155732,-0.870564 0.07394,-1.743627 0.213578,-2.599979 0.216632,-1.124983 0.736628,-2.184833 1.486705,-3.050183 0.634365,-0.733302 1.208502,-1.52014 1.891054,-2.210478 0.189121,-0.01169 -0.01054,0.41156 -0.06854,0.549688 -0.421776,1.271387 -1.195621,2.414672 -1.471629,3.736221 -0.10446,0.593943 -0.247099,1.195298 -0.204021,1.801607 0.07617,0.546293 0.34889,1.042393 0.63519,1.504498 0.07453,0.09501 0.163252,0.177454 0.242165,0.268626 z"
       id="path18" />
    <path
       style="opacity:0.15;mix-blend-mode:normal;fill:#000000;fill-opacity:1;stroke:none;stroke-width:1;stroke-linejoin:miter;stroke-dasharray:none;stroke-opacity:1;filter:url(#filter21)"
       d="m 21.413774,27.289674 c 2.198693,2.282133 4.564728,4.417272 7.100012,6.318665 1.38004,1.049911 3.012875,1.682417 4.44762,2.634098 1.748976,1.285516 3.032284,3.104652 3.982796,5.035243 -0.291007,-1.229525 -0.917273,-2.270728 -1.860192,-3.105955 -1.41766,-1.462631 -2.719694,-3.025484 -3.930193,-4.662255 -0.462373,-0.660268 -1.059267,-1.255912 -1.435431,-1.957596 -0.388547,-1.589508 -0.777093,-3.179017 -1.16564,-4.768526 -1.469157,0.190313 -2.937194,0.556972 -4.422627,0.295233 -0.838955,0.132093 -2.216995,-0.613253 -2.716345,0.211093 z"
       id="path19" />
    <path
       style="opacity:0.15;fill:#000000;fill-opacity:1;stroke:none;stroke-width:0.977;stroke-linejoin:miter;stroke-dasharray:none;stroke-opacity:1;filter:url(#filter20)"
       d="m 25.130776,26.892328 c 1.404099,-0.333331 2.740807,-0.938523 3.940718,-1.736581 1.168471,-0.86371 1.973245,-2.10245 2.728853,-3.320089 -0.01388,0.689817 0.05816,1.389602 -0.01114,2.073042 -0.446735,0.624011 -0.89347,1.248021 -1.340205,1.872032 -0.791921,0.399593 -1.583841,0.799186 -2.375762,1.198779 -0.806451,0.09445 -1.612903,0.188899 -2.419354,0.283348 -0.174371,-0.12351 -0.348738,-0.247024 -0.523111,-0.370531 z"
       id="path20" />
    <path
       style="opacity:0.15;fill:#000000;fill-opacity:1;stroke:none;stroke-width:0.977;stroke-linejoin:miter;stroke-dasharray:none;stroke-opacity:1;filter:url(#filter22)"
       d="m 28.839583,12.513281 c 0.926042,1.157552 1.852083,2.315104 2.778125,3.472656 1.348933,2.490348 2.279019,5.171153 3.258666,7.819284 0.114445,1.0983 0.451564,2.202335 0.426385,3.298314 -0.09285,0.362102 -0.185694,0.724205 -0.278541,1.086308 0.341754,-0.220486 0.683507,-0.440972 1.025261,-0.661458 0.07055,-0.941575 0.317904,-1.894349 0.03251,-2.824205 -0.284303,-1.938111 -0.945797,-3.795582 -1.592227,-5.636206 -0.471518,-1.141851 -0.810683,-2.360592 -1.613244,-3.327527 -0.535156,-0.772678 -1.006979,-1.606756 -1.776501,-2.172324 -0.510944,-0.450832 -1.021887,-0.901665 -1.532831,-1.352498 -0.242534,0.09922 -0.485069,0.198437 -0.727604,0.297656 z"
       id="path21" />
    <path
       style="opacity:1;fill:#000000;fill-opacity:1;stroke:none;stroke-width:0.977;stroke-linejoin:miter;stroke-dasharray:none;stroke-opacity:1"
       id="path22"
       inkscape:path-effect="#path-effect22"
       sodipodi:type="arc"
       sodipodi:cx="20.984766"
       sodipodi:cy="17.259245"
       sodipodi:rx="0.74414062"
       sodipodi:ry="0.74414062"
       d="m 21.728907,17.259245 c 0,0.410977 -0.333163,0.744141 -0.744141,0.744141 -0.410978,0 -0.744141,-0.333164 -0.744141,-0.744141 0,-0.410978 0.333163,-0.744141 0.744141,-0.744141 0.410978,0 0.744141,0.333163 0.744141,0.744141 z m 4.991351,0 c 0,0.410977 0.333163,0.744141 0.744141,0.744141 0.410977,0 0.74414,-0.333164 0.74414,-0.744141 0,-0.410978 -0.333163,-0.744141 -0.74414,-0.744141 -0.410978,0 -0.744141,0.333163 -0.744141,0.744141 z"
       transform="matrix(1.2444444,0,0,1.2444444,-5.1461459,-4.3842911)" />
    <path
       style="opacity:1;fill:#000000;fill-opacity:1;stroke:none;stroke-width:0.977;stroke-linejoin:miter;stroke-dasharray:none;stroke-opacity:1"
       d="m 24.589713,20.26888 c 0,0 -0.892969,-0.04961 -0.926041,0.214974 -0.03307,0.264583 0.198437,0.595312 0.429948,0.810286 0.23151,0.214974 0.479557,0.198438 0.479557,0.198438 l 0.04332,0.01238 0.04333,-0.01238 c 0,0 0.248047,0.01654 0.479557,-0.198438 0.231511,-0.214974 0.463018,-0.545703 0.429948,-0.810286 -0.03307,-0.264584 -0.926041,-0.214974 -0.926041,-0.214974"
       id="path23"
       inkscape:path-effect="#path-effect23"
       inkscape:original-d="m 24.589713,20.26888 c 0,0 -0.892969,-0.04961 -0.926041,0.214974 -0.03307,0.264583 0.198437,0.595312 0.429948,0.810286 0.23151,0.214974 0.479557,0.198438 0.479557,0.198438 l 0.115755,0.03307"
       sodipodi:nodetypes="csscc"
       transform="matrix(1.3019196,0,0,1.3131571,-7.048707,-6.7320588)" />
    <path
       style="opacity:1;fill:none;fill-opacity:1;stroke:#000000;stroke-width:0.75;stroke-linejoin:miter;stroke-dasharray:none;stroke-opacity:1"
       d="m 24.590467,21.167696 v 1.356393 l -1.046931,0.761753 m 1.046931,-2.118146 v 1.356393 l 1.046931,0.761753"
       id="path24"
       inkscape:path-effect="#path-effect24"
       inkscape:original-d="m 24.590467,21.167696 v 1.356393 l -1.046931,0.761753"
       sodipodi:nodetypes="ccc"
       transform="translate(0.41341146,-0.41341146)" />
  </g>
</svg>
